crazyA_po.ufo
<glyph name="asterisk" format="2">
	<advance width="470"/>
	<unicode hex="002A"/>
	<outline>
		<contour>
			<point x="100" y="631" type="line"/>
			<point x="119" y="689" type="line"/>
			<point x="213" y="650" type="line"/>
			<point x="206" y="750" type="line"/>
			<point x="265" y="750" type="line"/>
			<point x="255" y="650" type="line"/>
			<point x="351" y="689" type="line"/>
			<point x="370" y="631" type="line"/>
			<point x="270" y="608" type="line"/>
			<point x="338" y="530" type="line"/>
			<point x="292" y="498" type="line"/>
			<point x="234" y="584" type="line"/>
			<point x="181" y="497" type="line"/>
			<point x="133" y="530" type="line"/>
			<point x="200" y="608" type="line"/>
		</contour>
	</outline>
</glyph>
<glyph name="period" format="2">
	<advance width="356"/>
	<unicode hex="002E"/>
	<outline>
		<contour>
			<point x="178" y="156" type="curve" smooth="yes"/>
			<point x="135" y="156"/>
			<point x="100" y="121"/>
			<point x="100" y="78" type="curve" smooth="yes"/>
			<point x="100" y="34"/>
			<point x="135" y="0"/>
			<point x="178" y="0" type="curve" smooth="yes"/>
			<point x="222" y="0"/>
			<point x="256" y="34"/>
			<point x="256" y="78" type="curve" smooth="yes"/>
			<point x="256" y="121"/>
			<point x="222" y="156"/>
		</contour>
	</outline>
</glyph>
<glyph name="colon" format="2">
	<advance width="356"/>
	<unicode hex="003A"/>
	<outline>
		<contour>
			<point x="178" y="500" type="curve" smooth="yes"/>
			<point x="135" y="500"/>
			<point x="100" y="465"/>
			<point x="100" y="422" type="curve" smooth="yes"/>
			<point x="100" y="378"/>
			<point x="135" y="344"/>
			<point x="178" y="344" type="curve" smooth="yes"/>
			<point x="222" y="344"/>
			<point x="256" y="378"/>
			<point x="256" y="422" type="curve" smooth="yes"/>
			<point x="256" y="465"/>
			<point x="222" y="500"/>
		</contour>
		<contour>
			<point x="178" y="156" type="curve" smooth="yes"/>
			<point x="135" y="156"/>
			<point x="100" y="121"/>
			<point x="100" y="78" type="curve" smooth="yes"/>
			<point x="100" y="34"/>
			<point x="135" y="0"/>
			<point x="178" y="0" type="curve" smooth="yes"/>
			<point x="222" y="0"/>
			<point x="256" y="34"/>
			<point x="256" y="78" type="curve" smooth="yes"/>
			<point x="256" y="121"/>
			<point x="222" y="156"/>
		</contour>
	</outline>
</glyph>
<glyph name="semicolon" format="2">
	<advance width="372"/>
	<unicode hex="003B"/>
	<outline>
		<contour>
			<point x="179" y="0" type="curve" smooth="yes"/>
			<point x="221" y="0"/>
			<point x="256" y="35"/>
			<point x="256" y="79" type="curve" smooth="yes"/>
			<point x="256" y="121"/>
			<point x="221" y="156"/>
			<point x="179" y="156" type="curve" smooth="yes"/>
			<point x="135" y="156"/>
			<point x="100" y="121"/>
			<point x="100" y="79" type="curve" smooth="yes"/>
			<point x="100" y="35"/>
			<point x="135" y="0"/>
		</contour>
		<contour>
			<point x="134" y="-92" type="line"/>
			<point x="238" y="28" type="line"/>
			<point x="155" y="28" type="line"/>
			<point x="124" y="-92" type="line"/>
		</contour>
		<contour>
			<point x="194" y="500" type="curve" smooth="yes"/>
			<point x="151" y="500"/>
			<point x="116" y="465"/>
			<point x="116" y="422" type="curve" smooth="yes"/>
			<point x="116" y="378"/>
			<point x="151" y="344"/>
			<point x="194" y="344" type="curve" smooth="yes"/>
			<point x="238" y="344"/>
			<point x="272" y="378"/>
			<point x="272" y="422" type="curve" smooth="yes"/>
			<point x="272" y="465"/>
			<point x="238" y="500"/>
		</contour>
	</outline>
</glyph>
<glyph name="question" format="2">
	<advance width="605"/>
	<unicode hex="003F"/>
	<outline>
		<contour>
			<point x="219" y="289" type="curve"/>
			<point x="228" y="301"/>
			<point x="238" y="305"/>
			<point x="271" y="305" type="curve" smooth="yes"/>
			<point x="434" y="305"/>
			<point x="505" y="402"/>
			<point x="505" y="530" type="curve" smooth="yes"/>
			<point x="505" y="665"/>
			<point x="417" y="736"/>
			<point x="305" y="736" type="curve" smooth="yes"/>
			<point x="233" y="736"/>
			<point x="186" y="709"/>
			<point x="141" y="750" type="curve"/>
			<point x="126" y="738"/>
			<point x="132" y="693"/>
			<point x="172" y="683" type="curve"/>
			<point x="77" y="657"/>
			<point x="80" y="526"/>
			<point x="155" y="504" type="curve"/>
			<point x="155" y="629"/>
			<point x="239" y="685"/>
			<point x="293" y="685" type="curve" smooth="yes"/>
			<point x="357" y="685"/>
			<point x="400" y="648"/>
			<point x="400" y="542" type="curve" smooth="yes"/>
			<point x="400" y="394"/>
			<point x="288" y="336"/>
			<point x="179" y="375" type="curve"/>
			<point x="178" y="305" type="line"/>
			<point x="199" y="305"/>
			<point x="210" y="301"/>
		</contour>
		<contour>
			<point x="215" y="0" type="curve" smooth="yes"/>
			<point x="254" y="0"/>
			<point x="285" y="31"/>
			<point x="285" y="70" type="curve" smooth="yes"/>
			<point x="285" y="109"/>
			<point x="254" y="140"/>
			<point x="215" y="140" type="curve" smooth="yes"/>
			<point x="176" y="140"/>
			<point x="145" y="109"/>
			<point x="145" y="70" type="curve" smooth="yes"/>
			<point x="145" y="31"/>
			<point x="176" y="0"/>
		</contour>
		<contour>
			<point x="211" y="178" type="curve"/>
			<point x="234" y="144"/>
			<point x="284" y="144"/>
			<point x="308" y="181" type="curve"/>
			<point x="280" y="181"/>
			<point x="264" y="208"/>
			<point x="264" y="234" type="curve" smooth="yes"/>
			<point x="264" y="260"/>
			<point x="280" y="280"/>
			<point x="299" y="280" type="curve"/>
			<point x="281" y="304"/>
			<point x="238" y="304"/>
			<point x="219" y="272" type="curve"/>
			<point x="196" y="304"/>
			<point x="156" y="304"/>
			<point x="137" y="280" type="curve"/>
			<point x="158" y="280"/>
			<point x="172" y="257"/>
			<point x="172" y="233" type="curve" smooth="yes"/>
			<point x="172" y="209"/>
			<point x="157" y="183"/>
			<point x="132" y="183" type="curve"/>
			<point x="132" y="144"/>
			<point x="181" y="144"/>
		</contour>
		<contour>
			<point x="220" y="203" type="curve"/>
			<point x="189" y="229"/>
			<point x="190" y="260"/>
			<point x="204" y="260" type="curve" smooth="yes"/>
			<point x="209" y="260"/>
			<point x="215" y="257"/>
			<point x="220" y="251" type="curve"/>
			<point x="225" y="257"/>
			<point x="232" y="260"/>
			<point x="236" y="260" type="curve" smooth="yes"/>
			<point x="250" y="260"/>
			<point x="251" y="229"/>
		</contour>
		<contour>
			<point x="450" y="509" type="curve" smooth="yes"/>
			<point x="442" y="509"/>
			<point x="436" y="515"/>
			<point x="436" y="523" type="curve" smooth="yes"/>
			<point x="436" y="530"/>
			<point x="442" y="536"/>
			<point x="450" y="536" type="curve" smooth="yes"/>
			<point x="457" y="536"/>
			<point x="463" y="530"/>
			<point x="463" y="523" type="curve" smooth="yes"/>
			<point x="463" y="515"/>
			<point x="457" y="509"/>
		</contour>
		<contour>
			<point x="428" y="619" type="curve" smooth="yes"/>
			<point x="420" y="619"/>
			<point x="414" y="625"/>
			<point x="414" y="633" type="curve" smooth="yes"/>
			<point x="414" y="640"/>
			<point x="420" y="646"/>
			<point x="428" y="646" type="curve" smooth="yes"/>
			<point x="435" y="646"/>
			<point x="441" y="640"/>
			<point x="441" y="633" type="curve" smooth="yes"/>
			<point x="441" y="625"/>
			<point x="435" y="619"/>
		</contour>
		<contour>
			<point x="428" y="399" type="curve" smooth="yes"/>
			<point x="420" y="399"/>
			<point x="414" y="405"/>
			<point x="414" y="413" type="curve" smooth="yes"/>
			<point x="414" y="420"/>
			<point x="420" y="426"/>
			<point x="428" y="426" type="curve"/>
			<point x="435" y="426"/>
			<point x="441" y="420"/>
			<point x="441" y="413" type="curve" smooth="yes"/>
			<point x="441" y="405"/>
			<point x="435" y="399"/>
		</contour>
	</outline>
</glyph>
<glyph name="B" format="2">
  <advance width="624"/>
  <unicode hex="0042"/>
  <outline>
    <contour>
      <point x="302" y="710" type="curve" smooth="yes"/>
      <point x="370" y="710"/>
      <point x="430" y="659"/>
      <point x="430" y="576" type="curve" smooth="yes"/>
      <point x="430" y="493"/>
      <point x="411" y="472"/>
      <point x="383" y="472" type="curve" smooth="yes"/>
      <point x="358" y="472"/>
      <point x="341" y="494"/>
      <point x="355" y="529" type="curve"/>
      <point x="304" y="529"/>
      <point x="288" y="489"/>
      <point x="330" y="444" type="curve"/>
      <point x="283" y="421"/>
      <point x="281" y="391"/>
      <point x="302" y="367" type="curve"/>
      <point x="308" y="387"/>
      <point x="331" y="395"/>
      <point x="354" y="395" type="curve" smooth="yes"/>
      <point x="422" y="395"/>
      <point x="466" y="337"/>
      <point x="466" y="214" type="curve" smooth="yes"/>
      <point x="466" y="141"/>
      <point x="435" y="77"/>
      <point x="394" y="77" type="curve" smooth="yes"/>
      <point x="315" y="77"/>
      <point x="317" y="267"/>
      <point x="165" y="267" type="curve" smooth="yes"/>
      <point x="-20" y="267"/>
      <point x="-20" y="16"/>
      <point x="66" y="16" type="curve" smooth="yes"/>
      <point x="98" y="16"/>
      <point x="107" y="40"/>
      <point x="82" y="73" type="curve" smooth="yes"/>
      <point x="57" y="109"/>
      <point x="70" y="132"/>
      <point x="104" y="132" type="curve" smooth="yes"/>
      <point x="203" y="132"/>
      <point x="230" y="0"/>
      <point x="366" y="0" type="curve" smooth="yes"/>
      <point x="504" y="0"/>
      <point x="614" y="105"/>
      <point x="614" y="238" type="curve" smooth="yes"/>
      <point x="614" y="362"/>
      <point x="558" y="439"/>
      <point x="519" y="459" type="curve"/>
      <point x="630" y="547"/>
      <point x="600" y="750"/>
      <point x="353" y="750" type="curve" smooth="yes"/>
      <point x="93" y="750"/>
      <point x="90" y="511"/>
      <point x="162" y="511" type="curve" smooth="yes"/>
      <point x="186" y="511"/>
      <point x="204" y="529"/>
      <point x="204" y="599" type="curve" smooth="yes"/>
      <point x="204" y="681"/>
      <point x="239" y="710"/>
    </contour>
  </outline>
</glyph>
<glyph name="E" format="2">
	<advance width="1633"/>
	<unicode hex="0045"/>
	<outline>
		<contour>
			<point x="10" y="750" type="line"/>
			<point x="1370" y="750" type="line"/>
			<point x="1370" y="584" type="line"/>
			<point x="1349" y="584" type="line"/>
			<point x="1349" y="702"/>
			<point x="1331" y="729"/>
			<point x="1255" y="729" type="curve" smooth="yes"/>
			<point x="168" y="729" type="line"/>
			<point x="168" y="472" type="line"/>
			<point x="424" y="472" type="line" smooth="yes"/>
			<point x="461" y="472"/>
			<point x="469" y="496"/>
			<point x="448" y="568" type="curve"/>
			<point x="469" y="576" type="line"/>
			<point x="541" y="342" type="line"/>
			<point x="520" y="332" type="line"/>
			<point x="482" y="435"/>
			<point x="457" y="451"/>
			<point x="423" y="451" type="curve" smooth="yes"/>
			<point x="168" y="451" type="line"/>
			<point x="168" y="21" type="line"/>
			<point x="1475" y="21" type="line" smooth="yes"/>
			<point x="1549" y="21"/>
			<point x="1602" y="75"/>
			<point x="1602" y="249" type="curve"/>
			<point x="1623" y="249" type="line"/>
			<point x="1623" y="0" type="line"/>
			<point x="10" y="0" type="line"/>
			<point x="10" y="10" type="line"/>
			<point x="65" y="21" type="line" smooth="yes"/>
			<point x="102" y="28"/>
			<point x="126" y="43"/>
			<point x="126" y="81" type="curve" smooth="yes"/>
			<point x="126" y="630" type="line" smooth="yes"/>
			<point x="126" y="693"/>
			<point x="71" y="729"/>
			<point x="10" y="729" type="curve"/>
		</contour>
	</outline>
</glyph>
<glyph name="F" format="2">
  <advance width="254"/>
  <unicode hex="0046"/>
  <outline>
    <contour>
      <point x="56" y="15" type="curve" smooth="yes"/>
      <point x="50" y="689" type="line" smooth="yes"/>
      <point x="50" y="726"/>
      <point x="84" y="750"/>
      <point x="126" y="750" type="curve" smooth="yes"/>
      <point x="151" y="750"/>
      <point x="159" y="740"/>
      <point x="174" y="740" type="curve" smooth="yes"/>
      <point x="181" y="740"/>
      <point x="188" y="743"/>
      <point x="194" y="746" type="curve" smooth="yes"/>
      <point x="200" y="749"/>
      <point x="204" y="747"/>
      <point x="204" y="729" type="curve" smooth="yes"/>
      <point x="204" y="701"/>
      <point x="175" y="682"/>
      <point x="150" y="682" type="curve" smooth="yes"/>
      <point x="124" y="682"/>
      <point x="106" y="689"/>
      <point x="92" y="689" type="curve" smooth="yes"/>
      <point x="76" y="689"/>
      <point x="67" y="672"/>
      <point x="76" y="658" type="curve" smooth="yes"/>
      <point x="128" y="571"/>
      <point x="133" y="559"/>
      <point x="124" y="475" type="curve" smooth="yes"/>
      <point x="80" y="15" type="line" smooth="yes"/>
      <point x="78" y="-6"/>
      <point x="56" y="-5"/>
    </contour>
  </outline>
</glyph>
<glyph name="R" format="2">
  <advance width="524"/>
  <unicode hex="0052"/>
  <outline>
    <contour>
      <point x="29" y="11" type="line"/>
      <point x="91" y="135" type="line"/>
      <point x="125" y="135"/>
      <point x="165" y="122"/>
      <point x="188" y="99" type="curve"/>
      <point x="207" y="157"/>
      <point x="214" y="575"/>
      <point x="73" y="575" type="curve" smooth="yes"/>
      <point x="46" y="575"/>
      <point x="58" y="543"/>
      <point x="74" y="532" type="curve" smooth="yes"/>
      <point x="188" y="450"/>
      <point x="215" y="201"/>
      <point x="90" y="201" type="curve" smooth="yes"/>
      <point x="21" y="201"/>
      <point x="26" y="276"/>
      <point x="47" y="276" type="curve" smooth="yes"/>
      <point x="70" y="276"/>
      <point x="44" y="222"/>
      <point x="97" y="222" type="curve" smooth="yes"/>
      <point x="121" y="222"/>
      <point x="139" y="276"/>
      <point x="91" y="314" type="curve" smooth="yes"/>
      <point x="13" y="374"/>
      <point x="10" y="377"/>
      <point x="10" y="464" type="curve" smooth="yes"/>
      <point x="10" y="535"/>
      <point x="32" y="585"/>
      <point x="55" y="617" type="curve" smooth="yes"/>
      <point x="85" y="658"/>
      <point x="108" y="727"/>
      <point x="138" y="727" type="curve" smooth="yes"/>
      <point x="187" y="727"/>
      <point x="274" y="523"/>
      <point x="290" y="430" type="curve"/>
      <point x="368" y="490" type="line"/>
      <point x="343" y="508"/>
      <point x="330" y="528"/>
      <point x="330" y="583" type="curve" smooth="yes"/>
      <point x="330" y="634"/>
      <point x="307" y="661"/>
      <point x="282" y="661" type="curve" smooth="yes"/>
      <point x="229" y="661"/>
      <point x="250" y="601"/>
      <point x="280" y="592" type="curve" smooth="yes"/>
      <point x="311" y="582"/>
      <point x="311" y="564"/>
      <point x="283" y="564" type="curve" smooth="yes"/>
      <point x="193" y="564"/>
      <point x="193" y="750"/>
      <point x="324" y="750" type="curve" smooth="yes"/>
      <point x="487" y="750"/>
      <point x="405" y="590"/>
      <point x="458" y="537" type="curve"/>
      <point x="404" y="491" type="line"/>
      <point x="471" y="370"/>
      <point x="447" y="225"/>
      <point x="514" y="128" type="curve"/>
      <point x="416" y="0" type="line"/>
      <point x="318" y="123"/>
      <point x="374" y="258"/>
      <point x="308" y="405" type="curve"/>
      <point x="297" y="395" type="line"/>
      <point x="329" y="120"/>
      <point x="213" y="105"/>
      <point x="148" y="0" type="curve"/>
      <point x="61" y="33" type="line"/>
      <point x="45" y="1" type="line"/>
    </contour>
  </outline>
</glyph>
<glyph name="T" format="2">
  <advance width="580"/>
  <unicode hex="0054"/>
  <outline>
    <contour>
      <point x="39" y="607" type="curve"/>
      <point x="97" y="744" type="line"/>
      <point x="311" y="773"/>
      <point x="429" y="676"/>
      <point x="580" y="704" type="curve"/>
      <point x="522" y="567" type="line"/>
      <point x="379" y="538"/>
      <point x="223" y="636"/>
    </contour>
    <contour>
      <point x="388" y="312" type="line"/>
      <point x="388" y="393"/>
      <point x="313" y="483"/>
      <point x="313" y="564" type="curve"/>
      <point x="176" y="469" type="line"/>
      <point x="176" y="388"/>
      <point x="251" y="298"/>
      <point x="251" y="217" type="curve"/>
    </contour>
    <contour>
      <point x="84" y="225" type="line"/>
      <point x="273" y="225"/>
      <point x="316" y="129"/>
      <point x="526" y="131" type="curve"/>
      <point x="437" y="0" type="line"/>
      <point x="322" y="0"/>
      <point x="123" y="89"/>
      <point x="0" y="89" type="curve"/>
    </contour>
  </outline>
</glyph>
<glyph name="questiondown" format="2">
	<advance width="605"/>
	<unicode hex="00BF"/>
	<outline>
		<contour>
			<point x="386" y="211" type="curve"/>
			<point x="377" y="199"/>
			<point x="367" y="195"/>
			<point x="334" y="195" type="curve" smooth="yes"/>
			<point x="171" y="195"/>
			<point x="100" y="98"/>
			<point x="100" y="-30" type="curve" smooth="yes"/>
			<point x="100" y="-165"/>
			<point x="188" y="-236"/>
			<point x="300" y="-236" type="curve" smooth="yes"/>
			<point x="372" y="-236"/>
			<point x="419" y="-209"/>
			<point x="464" y="-250" type="curve"/>
			<point x="479" y="-238"/>
			<point x="473" y="-193"/>
			<point x="433" y="-183" type="curve"/>
			<point x="528" y="-157"/>
			<point x="525" y="-26"/>
			<point x="450" y="-4" type="curve"/>
			<point x="450" y="-129"/>
			<point x="366" y="-185"/>
			<point x="312" y="-185" type="curve" smooth="yes"/>
			<point x="248" y="-185"/>
			<point x="205" y="-148"/>
			<point x="205" y="-42" type="curve" smooth="yes"/>
			<point x="205" y="106"/>
			<point x="317" y="164"/>
			<point x="426" y="125" type="curve"/>
			<point x="427" y="195" type="line"/>
			<point x="406" y="195"/>
			<point x="395" y="199"/>
		</contour>
		<contour>
			<point x="390" y="500" type="curve" smooth="yes"/>
			<point x="351" y="500"/>
			<point x="320" y="469"/>
			<point x="320" y="430" type="curve" smooth="yes"/>
			<point x="320" y="391"/>
			<point x="351" y="360"/>
			<point x="390" y="360" type="curve" smooth="yes"/>
			<point x="429" y="360"/>
			<point x="460" y="391"/>
			<point x="460" y="430" type="curve" smooth="yes"/>
			<point x="460" y="469"/>
			<point x="429" y="500"/>
		</contour>
		<contour>
			<point x="394" y="322" type="curve"/>
			<point x="371" y="356"/>
			<point x="321" y="356"/>
			<point x="297" y="319" type="curve"/>
			<point x="325" y="319"/>
			<point x="341" y="292"/>
			<point x="341" y="266" type="curve" smooth="yes"/>
			<point x="341" y="240"/>
			<point x="325" y="220"/>
			<point x="306" y="220" type="curve"/>
			<point x="324" y="196"/>
			<point x="367" y="196"/>
			<point x="386" y="228" type="curve"/>
			<point x="409" y="196"/>
			<point x="449" y="196"/>
			<point x="468" y="220" type="curve"/>
			<point x="447" y="220"/>
			<point x="433" y="243"/>
			<point x="433" y="267" type="curve" smooth="yes"/>
			<point x="433" y="291"/>
			<point x="448" y="317"/>
			<point x="473" y="317" type="curve"/>
			<point x="473" y="356"/>
			<point x="424" y="356"/>
		</contour>
		<contour>
			<point x="385" y="297" type="curve"/>
			<point x="416" y="271"/>
			<point x="415" y="240"/>
			<point x="401" y="240" type="curve" smooth="yes"/>
			<point x="396" y="240"/>
			<point x="390" y="243"/>
			<point x="385" y="249" type="curve"/>
			<point x="380" y="243"/>
			<point x="373" y="240"/>
			<point x="369" y="240" type="curve" smooth="yes"/>
			<point x="355" y="240"/>
			<point x="354" y="271"/>
		</contour>
		<contour>
			<point x="155" y="-9" type="curve" smooth="yes"/>
			<point x="163" y="-9"/>
			<point x="169" y="-15"/>
			<point x="169" y="-23" type="curve" smooth="yes"/>
			<point x="169" y="-30"/>
			<point x="163" y="-36"/>
			<point x="155" y="-36" type="curve" smooth="yes"/>
			<point x="148" y="-36"/>
			<point x="142" y="-30"/>
			<point x="142" y="-23" type="curve" smooth="yes"/>
			<point x="142" y="-15"/>
			<point x="148" y="-9"/>
		</contour>
		<contour>
			<point x="177" y="-119" type="curve" smooth="yes"/>
			<point x="185" y="-119"/>
			<point x="191" y="-125"/>
			<point x="191" y="-133" type="curve" smooth="yes"/>
			<point x="191" y="-140"/>
			<point x="185" y="-146"/>
			<point x="177" y="-146" type="curve" smooth="yes"/>
			<point x="170" y="-146"/>
			<point x="164" y="-140"/>
			<point x="164" y="-133" type="curve" smooth="yes"/>
			<point x="164" y="-125"/>
			<point x="170" y="-119"/>
		</contour>
		<contour>
			<point x="177" y="101" type="curve" smooth="yes"/>
			<point x="185" y="101"/>
			<point x="191" y="95"/>
			<point x="191" y="87" type="curve" smooth="yes"/>
			<point x="191" y="80"/>
			<point x="185" y="74"/>
			<point x="177" y="74" type="curve"/>
			<point x="170" y="74"/>
			<point x="164" y="80"/>
			<point x="164" y="87" type="curve" smooth="yes"/>
			<point x="164" y="95"/>
			<point x="170" y="101"/>
		</contour>
	</outline>
</glyph>
<glyph name="ellipsis" format="2">
	<advance width="840"/>
	<unicode hex="2026"/>
	<outline>
		<contour>
			<point x="170" y="140" type="curve" smooth="yes"/>
			<point x="131" y="140"/>
			<point x="100" y="109"/>
			<point x="100" y="70" type="curve" smooth="yes"/>
			<point x="100" y="31"/>
			<point x="131" y="0"/>
			<point x="170" y="0" type="curve" smooth="yes"/>
			<point x="209" y="0"/>
			<point x="240" y="31"/>
			<point x="240" y="70" type="curve" smooth="yes"/>
			<point x="240" y="109"/>
			<point x="209" y="140"/>
		</contour>
		<contour>
			<point x="420" y="140" type="curve" smooth="yes"/>
			<point x="381" y="140"/>
			<point x="350" y="109"/>
			<point x="350" y="70" type="curve" smooth="yes"/>
			<point x="350" y="31"/>
			<point x="381" y="0"/>
			<point x="420" y="0" type="curve" smooth="yes"/>
			<point x="459" y="0"/>
			<point x="490" y="31"/>
			<point x="490" y="70" type="curve" smooth="yes"/>
			<point x="490" y="109"/>
			<point x="459" y="140"/>
		</contour>
		<contour>
			<point x="670" y="140" type="curve" smooth="yes"/>
			<point x="631" y="140"/>
			<point x="600" y="109"/>
			<point x="600" y="70" type="curve" smooth="yes"/>
			<point x="600" y="31"/>
			<point x="631" y="0"/>
			<point x="670" y="0" type="curve" smooth="yes"/>
			<point x="709" y="0"/>
			<point x="740" y="31"/>
			<point x="740" y="70" type="curve" smooth="yes"/>
			<point x="740" y="109"/>
			<point x="709" y="140"/>
		</contour>
	</outline>
</glyph>
<glyph name="F.002" format="2">
	<advance width="647"/>
	<guideline x="379" y="182" angle="90"/>
	<outline>
		<contour>
			<point x="155" y="20" type="curve" smooth="yes"/>
			<point x="146" y="-9"/>
			<point x="73" y="-10"/>
			<point x="51" y="37" type="curve"/>
			<point x="16" y="48"/>
			<point x="-1" y="82"/>
			<point x="17" y="145" type="curve" smooth="yes"/>
			<point x="50" y="263"/>
			<point x="90" y="382"/>
			<point x="137" y="500" type="curve" smooth="yes"/>
			<point x="170" y="584"/>
			<point x="60" y="642"/>
			<point x="155" y="669" type="curve" smooth="yes"/>
			<point x="500" y="766"/>
			<point x="578" y="762"/>
			<point x="616" y="694" type="curve" smooth="yes"/>
			<point x="654" y="626"/>
			<point x="644" y="598"/>
			<point x="552" y="592" type="curve" smooth="yes"/>
			<point x="457" y="586"/>
			<point x="382" y="574"/>
			<point x="297" y="551" type="curve"/>
			<point x="268" y="464" type="line"/>
			<point x="277" y="456" type="line"/>
			<point x="437" y="492"/>
			<point x="471" y="485"/>
			<point x="489" y="413" type="curve" smooth="yes"/>
			<point x="503" y="357"/>
			<point x="502" y="354"/>
			<point x="406" y="334" type="curve" smooth="yes"/>
			<point x="223" y="296" type="line"/>
			<point x="199" y="199"/>
			<point x="183" y="108"/>
		</contour>
	</outline>
</glyph>
<glyph name="L.001" format="2">
	<advance width="265"/>
	<outline>
		<contour>
			<point x="172" y="750" type="line"/>
			<point x="10" y="712" type="line"/>
			<point x="10" y="97" type="line"/>
			<point x="105" y="0" type="line"/>
			<point x="141" y="65"/>
			<point x="212" y="151"/>
			<point x="255" y="186" type="curve"/>
			<point x="225" y="217" type="line"/>
			<point x="200" y="192" type="line"/>
			<point x="172" y="221" type="line"/>
		</contour>
	</outline>
</glyph>
<glyph name="R.002" format="2">
	<advance width="377"/>
	<outline>
		<contour>
			<point x="10" y="0" type="line"/>
			<point x="127" y="0" type="line"/>
			<point x="129" y="221" type="line"/>
			<point x="242" y="221"/>
			<point x="152" y="0"/>
			<point x="323" y="0" type="curve" smooth="yes"/>
			<point x="361" y="0" type="line"/>
			<point x="361" y="100" type="line"/>
			<point x="265" y="129"/>
			<point x="339" y="208"/>
			<point x="236" y="258" type="curve"/>
			<point x="427" y="321"/>
			<point x="427" y="750"/>
			<point x="119" y="750" type="curve" smooth="yes"/>
			<point x="10" y="750" type="line"/>
		</contour>
		<contour>
			<point x="128" y="340" type="curve"/>
			<point x="128" y="624" type="line"/>
			<point x="289" y="624"/>
			<point x="289" y="340"/>
		</contour>
	</outline>
</glyph>
<glyph name="X.002" format="2">
	<advance width="754"/>
	<outline>
		<contour>
			<point x="524" y="0" type="line"/>
			<point x="744" y="0" type="line"/>
			<point x="231" y="750" type="line"/>
			<point x="11" y="750" type="line"/>
		</contour>
		<contour>
			<point x="76" y="-2" type="line"/>
			<point x="343" y="313" type="line"/>
			<point x="309" y="351" type="line"/>
			<point x="10" y="0" type="line"/>
		</contour>
		<contour>
			<point x="553" y="48" type="line"/>
			<point x="104" y="702" type="line"/>
			<point x="203" y="702" type="line"/>
			<point x="650" y="48" type="line"/>
		</contour>
		<contour>
			<point x="422" y="398" type="line"/>
			<point x="721" y="749" type="line"/>
			<point x="655" y="751" type="line"/>
			<point x="388" y="436" type="line"/>
		</contour>
	</outline>
</glyph>
<glyph name="comma.001" format="2">
	<advance width="356"/>
	<outline>
		<contour>
			<point x="179" y="0" type="curve" smooth="yes"/>
			<point x="221" y="0"/>
			<point x="256" y="35"/>
			<point x="256" y="79" type="curve" smooth="yes"/>
			<point x="256" y="121"/>
			<point x="221" y="156"/>
			<point x="179" y="156" type="curve" smooth="yes"/>
			<point x="135" y="156"/>
			<point x="100" y="121"/>
			<point x="100" y="79" type="curve" smooth="yes"/>
			<point x="100" y="35"/>
			<point x="135" y="0"/>
		</contour>
		<contour>
			<point x="134" y="-92" type="line"/>
			<point x="238" y="28" type="line"/>
			<point x="155" y="28" type="line"/>
			<point x="124" y="-92" type="line"/>
		</contour>
	</outline>
</glyph>
<glyph name="exclam.001" format="2">
	<advance width="400"/>
	<outline>
		<contour>
			<point x="100" y="750" type="line"/>
			<point x="300" y="750" type="line"/>
			<point x="250" y="194" type="line"/>
			<point x="150" y="195" type="line"/>
		</contour>
		<contour>
			<point x="130" y="140" type="line"/>
			<point x="130" y="0" type="line"/>
			<point x="270" y="0" type="line"/>
			<point x="270" y="140" type="line"/>
		</contour>
	</outline>
</glyph>
<glyph name="nine.tf.002" format="2">
	<advance width="439"/>
	<outline>
		<contour>
			<point x="211" y="0" type="curve" smooth="yes"/>
			<point x="343" y="0"/>
			<point x="429" y="71"/>
			<point x="429" y="253" type="curve" smooth="yes"/>
			<point x="429" y="499" type="line"/>
			<point x="429" y="657"/>
			<point x="348" y="750"/>
			<point x="216" y="750" type="curve" smooth="yes"/>
			<point x="84" y="750"/>
			<point x="10" y="657"/>
			<point x="10" y="568" type="curve" smooth="yes"/>
			<point x="10" y="448" type="line" smooth="yes"/>
			<point x="10" y="326"/>
			<point x="71" y="247"/>
			<point x="159" y="247" type="curve" smooth="yes"/>
			<point x="193" y="247"/>
			<point x="241" y="260"/>
			<point x="272" y="290" type="curve"/>
			<point x="272" y="132"/>
			<point x="259" y="99"/>
			<point x="219" y="99" type="curve" smooth="yes"/>
			<point x="187" y="99"/>
			<point x="176" y="110"/>
			<point x="176" y="210" type="curve"/>
			<point x="33" y="210" type="line"/>
			<point x="33" y="71"/>
			<point x="79" y="0"/>
		</contour>
		<contour>
			<point x="167" y="439" type="curve" smooth="yes"/>
			<point x="167" y="573" type="line"/>
			<point x="167" y="584" type="line"/>
			<point x="167" y="657"/>
			<point x="267" y="657"/>
			<point x="267" y="584" type="curve"/>
			<point x="267" y="439" type="line" smooth="yes"/>
			<point x="267" y="355"/>
			<point x="167" y="355"/>
		</contour>
	</outline>
</glyph>
<glyph name="question.001" format="2">
	<advance width="781"/>
	<outline>
		<contour>
			<point x="413" y="0" type="line"/>
			<point x="519" y="110" type="line"/>
			<point x="407" y="219" type="line"/>
			<point x="281" y="97" type="line"/>
			<point x="308" y="97" type="line"/>
		</contour>
		<contour>
			<point x="341" y="271" type="line"/>
			<point x="474" y="304"/>
			<point x="681" y="388"/>
			<point x="681" y="569" type="curve" smooth="yes"/>
			<point x="681" y="682"/>
			<point x="586" y="750"/>
			<point x="406" y="750" type="curve" smooth="yes"/>
			<point x="279" y="750"/>
			<point x="100" y="656"/>
			<point x="100" y="589" type="curve" smooth="yes"/>
			<point x="100" y="517"/>
			<point x="173" y="497"/>
			<point x="173" y="415" type="curve"/>
			<point x="211" y="415"/>
			<point x="291" y="471"/>
			<point x="291" y="530" type="curve" smooth="yes"/>
			<point x="291" y="580"/>
			<point x="259" y="639"/>
			<point x="215" y="667" type="curve"/>
			<point x="356" y="708"/>
			<point x="525" y="669"/>
			<point x="525" y="507" type="curve" smooth="yes"/>
			<point x="525" y="420"/>
			<point x="468" y="351"/>
			<point x="341" y="275" type="curve"/>
		</contour>
	</outline>
</glyph>
<glyph name="semicolon.001" format="2">
	<advance width="356"/>
	<outline>
		<contour>
			<point x="178" y="500" type="curve" smooth="yes"/>
			<point x="135" y="500"/>
			<point x="100" y="465"/>
			<point x="100" y="422" type="curve" smooth="yes"/>
			<point x="100" y="378"/>
			<point x="135" y="344"/>
			<point x="178" y="344" type="curve" smooth="yes"/>
			<point x="222" y="344"/>
			<point x="256" y="378"/>
			<point x="256" y="422" type="curve" smooth="yes"/>
			<point x="256" y="465"/>
			<point x="222" y="500"/>
		</contour>
		<contour>
			<point x="116" y="0" type="line"/>
			<point x="116" y="141" type="line"/>
			<point x="241" y="141" type="line"/>
			<point x="241" y="0" type="line" smooth="yes"/>
			<point x="241" y="-81"/>
			<point x="197" y="-109"/>
			<point x="116" y="-109" type="curve"/>
			<point x="116" y="-69" type="line"/>
			<point x="156" y="-69"/>
			<point x="189" y="-40"/>
			<point x="189" y="0" type="curve"/>
		</contour>
	</outline>
</glyph>
<glyph name="semicolon.002" format="2">
	<advance width="361"/>
	<outline>
		<contour>
			<point x="118" y="0" type="line"/>
			<point x="118" y="141" type="line"/>
			<point x="243" y="141" type="line"/>
			<point x="243" y="0" type="line" smooth="yes"/>
			<point x="243" y="-81"/>
			<point x="199" y="-109"/>
			<point x="118" y="-109" type="curve"/>
			<point x="118" y="-69" type="line"/>
			<point x="158" y="-69"/>
			<point x="191" y="-40"/>
			<point x="191" y="0" type="curve"/>
		</contour>
		<contour>
			<point x="110" y="500" type="line"/>
			<point x="110" y="359" type="line"/>
			<point x="251" y="359" type="line"/>
			<point x="251" y="500" type="line"/>
		</contour>
	</outline>
</glyph>
<glyph name="three.tf.002" format="2">
  <advance width="421"/>
  <outline>
    <contour>
      <point x="137" y="167" type="curve" smooth="yes"/>
      <point x="137" y="213"/>
      <point x="115" y="241"/>
      <point x="79" y="241" type="curve" smooth="yes"/>
      <point x="45" y="241"/>
      <point x="10" y="209"/>
      <point x="10" y="156" type="curve" smooth="yes"/>
      <point x="10" y="71"/>
      <point x="77" y="0"/>
      <point x="186" y="0" type="curve" smooth="yes"/>
      <point x="323" y="0"/>
      <point x="411" y="91"/>
      <point x="411" y="208" type="curve" smooth="yes"/>
      <point x="411" y="325"/>
      <point x="343" y="397"/>
      <point x="257" y="397" type="curve"/>
      <point x="257" y="405" type="line"/>
      <point x="343" y="405"/>
      <point x="391" y="480"/>
      <point x="391" y="580" type="curve" smooth="yes"/>
      <point x="391" y="670"/>
      <point x="316" y="750"/>
      <point x="201" y="750" type="curve" smooth="yes"/>
      <point x="103" y="750"/>
      <point x="15" y="683"/>
      <point x="15" y="595" type="curve" smooth="yes"/>
      <point x="15" y="542"/>
      <point x="46" y="508"/>
      <point x="79" y="508" type="curve" smooth="yes"/>
      <point x="118" y="508"/>
      <point x="140" y="543"/>
      <point x="140" y="587" type="curve" smooth="yes"/>
      <point x="140" y="628"/>
      <point x="111" y="688"/>
      <point x="176" y="688" type="curve" smooth="yes"/>
      <point x="205" y="688"/>
      <point x="225" y="661"/>
      <point x="225" y="564" type="curve" smooth="yes"/>
      <point x="225" y="454"/>
      <point x="202" y="430"/>
      <point x="119" y="430" type="curve" smooth="yes"/>
      <point x="95" y="430" type="line"/>
      <point x="95" y="370" type="line"/>
      <point x="119" y="370" type="line" smooth="yes"/>
      <point x="180" y="370"/>
      <point x="225" y="335"/>
      <point x="225" y="261" type="curve" smooth="yes"/>
      <point x="225" y="135" type="line" smooth="yes"/>
      <point x="225" y="81"/>
      <point x="205" y="54"/>
      <point x="176" y="54" type="curve" smooth="yes"/>
      <point x="111" y="54"/>
      <point x="137" y="150"/>
    </contour>
  </outline>
</glyph>
